<svg xmlns="http://www.w3.org/2000/svg" xmlns:xlink="http://www.w3.org/1999/xlink" width="1080" zoomAndPan="magnify" viewBox="0 0 810 525.000007" height="700" preserveAspectRatio="xMidYMid meet" version="1.0"><defs><g/><clipPath id="60d07feabf"><path d="M 0.769531 199 L 809.230469 199 L 809.230469 368 L 0.769531 368 Z M 0.769531 199 " clip-rule="nonzero"/></clipPath><clipPath id="b328e95c8a"><rect x="0" width="810" y="0" height="169"/></clipPath></defs><g clip-path="url(#60d07feabf)"><g transform="matrix(1, 0, 0, 1, 0.000000000000000111, 199)"><g clip-path="url(#b328e95c8a)"><g fill="#000000" fill-opacity="1"><g transform="translate(0.769957, 126.779222)"><g><path d="M 63.75 -58.71875 L 96.296875 -58.71875 L 96.296875 0 L 5.03125 0 L 5.03125 -117.4375 L 63.75 -117.4375 Z M 63.75 -58.71875 "/></g></g></g><g fill="#db4437" fill-opacity="1"><g transform="translate(101.605622, 126.779222)"><g><path d="M 64.25 -121.46875 C 72.863281 -121.46875 80.945312 -119.84375 88.5 -116.59375 C 96.050781 -113.351562 102.703125 -108.851562 108.453125 -103.09375 C 114.210938 -97.332031 118.710938 -90.675781 121.953125 -83.125 C 125.203125 -75.570312 126.828125 -67.492188 126.828125 -58.890625 C 126.828125 -50.273438 125.203125 -42.191406 121.953125 -34.640625 C 118.710938 -27.085938 114.210938 -20.429688 108.453125 -14.671875 C 102.703125 -8.921875 96.050781 -4.421875 88.5 -1.171875 C 80.945312 2.066406 72.863281 3.6875 64.25 3.6875 C 55.644531 3.6875 47.566406 2.066406 40.015625 -1.171875 C 32.460938 -4.421875 25.804688 -8.921875 20.046875 -14.671875 C 14.285156 -20.429688 9.78125 -27.085938 6.53125 -34.640625 C 3.289062 -42.191406 1.671875 -50.273438 1.671875 -58.890625 C 1.671875 -67.492188 3.289062 -75.570312 6.53125 -83.125 C 9.78125 -90.675781 14.285156 -97.332031 20.046875 -103.09375 C 25.804688 -108.851562 32.460938 -113.351562 40.015625 -116.59375 C 47.566406 -119.84375 55.644531 -121.46875 64.25 -121.46875 Z M 64.25 -121.46875 "/></g></g></g><g fill="#000000" fill-opacity="1"><g transform="translate(218.714793, 126.779222)"><g><path d="M -4.703125 0 L 69.453125 -125.65625 L 143.609375 0 Z M -4.703125 0 "/></g></g></g><g fill="#4285f4" fill-opacity="1"><g transform="translate(357.121506, 126.779222)"><g><path d="M 63.75 0.171875 L 5.03125 0.171875 L 5.03125 -117.4375 L 63.75 -117.4375 C 71.800781 -117.4375 79.378906 -115.894531 86.484375 -112.8125 C 93.585938 -109.738281 99.847656 -105.519531 105.265625 -100.15625 C 110.691406 -94.789062 114.914062 -88.523438 117.9375 -81.359375 C 120.957031 -74.203125 122.46875 -66.597656 122.46875 -58.546875 C 122.46875 -50.492188 120.957031 -42.914062 117.9375 -35.8125 C 114.914062 -28.71875 110.691406 -22.457031 105.265625 -17.03125 C 99.847656 -11.601562 93.585938 -7.378906 86.484375 -4.359375 C 79.378906 -1.335938 71.800781 0.171875 63.75 0.171875 Z M 63.75 0.171875 "/></g></g></g><g fill="#000000" fill-opacity="1"><g transform="translate(482.613171, 126.779222)"><g><path d="M 4.859375 -117.4375 L 65.9375 -117.4375 L 65.9375 0 L 4.859375 0 Z M 4.859375 -117.4375 "/></g></g></g><g fill="#f4b400" fill-opacity="1"><g transform="translate(553.57767, 126.779222)"><g><path d="M 5.03125 -120.28125 L 64.09375 -74.15625 L 64.09375 -117.4375 L 122.46875 -117.4375 L 122.46875 0 L 5.03125 0 Z M 5.03125 -120.28125 "/></g></g></g><g fill="#000000" fill-opacity="1"><g transform="translate(680.748569, 126.779222)"><g><path d="M 64.25 -58.890625 L 126.328125 -58.890625 C 126.328125 -50.273438 124.734375 -42.21875 121.546875 -34.71875 C 118.359375 -27.226562 113.910156 -20.628906 108.203125 -14.921875 C 102.503906 -9.222656 95.90625 -4.78125 88.40625 -1.59375 C 80.914062 1.59375 72.863281 3.1875 64.25 3.1875 C 55.644531 3.1875 47.59375 1.59375 40.09375 -1.59375 C 32.601562 -4.78125 26.003906 -9.222656 20.296875 -14.921875 C 14.597656 -20.628906 10.15625 -27.226562 6.96875 -34.71875 C 3.78125 -42.21875 2.1875 -50.273438 2.1875 -58.890625 C 2.1875 -66.609375 3.5 -73.90625 6.125 -80.78125 C 8.75 -87.65625 12.410156 -93.832031 17.109375 -99.3125 C 21.804688 -104.789062 27.34375 -109.347656 33.71875 -112.984375 C 40.09375 -116.617188 46.972656 -119.050781 54.359375 -120.28125 C 61.285156 -121.40625 68.300781 -121.320312 75.40625 -120.03125 C 82.507812 -118.75 89.140625 -116.316406 95.296875 -112.734375 Z M 64.25 -58.890625 "/></g></g></g></g></g></g></svg>